<svg width="87" height="70" viewBox="0 0 87 70" fill="none" xmlns="http://www.w3.org/2000/svg">
<circle cx="44" cy="45" r="21" stroke="#FF881B" strokeWidth="8"/>
<circle cx="43.5" cy="44.5" r="11.5" fill="#FF881B"/>
<mask id="mask0_685_2498" style="mask-type:alpha" maskUnits="userSpaceOnUse" x="36" y="37" width="16" height="16">
<rect x="36" y="37" width="16" height="16" fill="#D9D9D9"/>
</mask>
<g mask="url(#mask0_685_2498)">
<path d="M43.3335 45.6667H39.3335V44.3334H43.3335V40.3334H44.6668V44.3334H48.6668V45.6667H44.6668V49.6667H43.3335V45.6667Z" fill="white"/>
</g>
<rect width="87" height="18" rx="9" fill="white"/>
<path d="M4.86719 4.46875H7.88477C8.5332 4.46875 9.08594 4.56641 9.54297 4.76172C10 4.95703 10.3496 5.24609 10.5918 5.62891C10.8379 6.00781 10.9609 6.47656 10.9609 7.03516C10.9609 7.46094 10.8828 7.83594 10.7266 8.16016C10.5703 8.48438 10.3496 8.75781 10.0645 8.98047C9.7793 9.19922 9.43945 9.36914 9.04492 9.49023L8.59961 9.70703H5.88672L5.875 8.54102H7.9082C8.25977 8.54102 8.55273 8.47852 8.78711 8.35352C9.02148 8.22852 9.19727 8.05859 9.31445 7.84375C9.43555 7.625 9.49609 7.37891 9.49609 7.10547C9.49609 6.80859 9.4375 6.55078 9.32031 6.33203C9.20703 6.10938 9.03125 5.93945 8.79297 5.82227C8.55469 5.70117 8.25195 5.64062 7.88477 5.64062H6.33789V13H4.86719V4.46875ZM9.73633 13L7.73242 9.16797L9.27344 9.16211L11.3066 12.9238V13H9.73633ZM12.0156 9.90039V9.76562C12.0156 9.30859 12.082 8.88477 12.2148 8.49414C12.3477 8.09961 12.5391 7.75781 12.7891 7.46875C13.043 7.17578 13.3516 6.94922 13.7148 6.78906C14.082 6.625 14.4961 6.54297 14.957 6.54297C15.4219 6.54297 15.8359 6.625 16.1992 6.78906C16.5664 6.94922 16.877 7.17578 17.1309 7.46875C17.3848 7.75781 17.5781 8.09961 17.7109 8.49414C17.8438 8.88477 17.9102 9.30859 17.9102 9.76562V9.90039C17.9102 10.3574 17.8438 10.7812 17.7109 11.1719C17.5781 11.5625 17.3848 11.9043 17.1309 12.1973C16.877 12.4863 16.5684 12.7129 16.2051 12.877C15.8418 13.0371 15.4297 13.1172 14.9688 13.1172C14.5039 13.1172 14.0879 13.0371 13.7207 12.877C13.3574 12.7129 13.0488 12.4863 12.7949 12.1973C12.541 11.9043 12.3477 11.5625 12.2148 11.1719C12.082 10.7812 12.0156 10.3574 12.0156 9.90039ZM13.4277 9.76562V9.90039C13.4277 10.1855 13.457 10.4551 13.5156 10.709C13.5742 10.9629 13.666 11.1855 13.791 11.377C13.916 11.5684 14.0762 11.7188 14.2715 11.8281C14.4668 11.9375 14.6992 11.9922 14.9688 11.9922C15.2305 11.9922 15.457 11.9375 15.6484 11.8281C15.8438 11.7188 16.0039 11.5684 16.1289 11.377C16.2539 11.1855 16.3457 10.9629 16.4043 10.709C16.4668 10.4551 16.498 10.1855 16.498 9.90039V9.76562C16.498 9.48438 16.4668 9.21875 16.4043 8.96875C16.3457 8.71484 16.252 8.49023 16.123 8.29492C15.998 8.09961 15.8379 7.94727 15.6426 7.83789C15.4512 7.72461 15.2227 7.66797 14.957 7.66797C14.6914 7.66797 14.4609 7.72461 14.2656 7.83789C14.0742 7.94727 13.916 8.09961 13.791 8.29492C13.666 8.49023 13.5742 8.71484 13.5156 8.96875C13.457 9.21875 13.4277 9.48438 13.4277 9.76562ZM18.8242 9.90039V9.76562C18.8242 9.30859 18.8906 8.88477 19.0234 8.49414C19.1562 8.09961 19.3477 7.75781 19.5977 7.46875C19.8516 7.17578 20.1602 6.94922 20.5234 6.78906C20.8906 6.625 21.3047 6.54297 21.7656 6.54297C22.2305 6.54297 22.6445 6.625 23.0078 6.78906C23.375 6.94922 23.6855 7.17578 23.9395 7.46875C24.1934 7.75781 24.3867 8.09961 24.5195 8.49414C24.6523 8.88477 24.7188 9.30859 24.7188 9.76562V9.90039C24.7188 10.3574 24.6523 10.7812 24.5195 11.1719C24.3867 11.5625 24.1934 11.9043 23.9395 12.1973C23.6855 12.4863 23.377 12.7129 23.0137 12.877C22.6504 13.0371 22.2383 13.1172 21.7773 13.1172C21.3125 13.1172 20.8965 13.0371 20.5293 12.877C20.166 12.7129 19.8574 12.4863 19.6035 12.1973C19.3496 11.9043 19.1562 11.5625 19.0234 11.1719C18.8906 10.7812 18.8242 10.3574 18.8242 9.90039ZM20.2363 9.76562V9.90039C20.2363 10.1855 20.2656 10.4551 20.3242 10.709C20.3828 10.9629 20.4746 11.1855 20.5996 11.377C20.7246 11.5684 20.8848 11.7188 21.0801 11.8281C21.2754 11.9375 21.5078 11.9922 21.7773 11.9922C22.0391 11.9922 22.2656 11.9375 22.457 11.8281C22.6523 11.7188 22.8125 11.5684 22.9375 11.377C23.0625 11.1855 23.1543 10.9629 23.2129 10.709C23.2754 10.4551 23.3066 10.1855 23.3066 9.90039V9.76562C23.3066 9.48438 23.2754 9.21875 23.2129 8.96875C23.1543 8.71484 23.0605 8.49023 22.9316 8.29492C22.8066 8.09961 22.6465 7.94727 22.4512 7.83789C22.2598 7.72461 22.0312 7.66797 21.7656 7.66797C21.5 7.66797 21.2695 7.72461 21.0742 7.83789C20.8828 7.94727 20.7246 8.09961 20.5996 8.29492C20.4746 8.49023 20.3828 8.71484 20.3242 8.96875C20.2656 9.21875 20.2363 9.48438 20.2363 9.76562ZM27.8125 13H26.4004V6.05078C26.4004 5.57812 26.4883 5.18164 26.6641 4.86133C26.8438 4.53711 27.0996 4.29297 27.4316 4.12891C27.7637 3.96094 28.1562 3.87695 28.6094 3.87695C28.75 3.87695 28.8887 3.88672 29.0254 3.90625C29.1621 3.92188 29.2949 3.94727 29.4238 3.98242L29.3887 5.07227C29.3105 5.05273 29.2246 5.03906 29.1309 5.03125C29.041 5.02344 28.9434 5.01953 28.8379 5.01953C28.623 5.01953 28.4375 5.06055 28.2812 5.14258C28.1289 5.2207 28.0117 5.33594 27.9297 5.48828C27.8516 5.64062 27.8125 5.82812 27.8125 6.05078V13ZM29.1191 6.66016V7.69141H25.4277V6.66016H29.1191ZM38.6172 11.834V13H34.334V11.834H38.6172ZM34.7441 4.46875V13H33.2734V4.46875H34.7441ZM39.3438 9.90039V9.76562C39.3438 9.30859 39.4102 8.88477 39.543 8.49414C39.6758 8.09961 39.8672 7.75781 40.1172 7.46875C40.3711 7.17578 40.6797 6.94922 41.043 6.78906C41.4102 6.625 41.8242 6.54297 42.2852 6.54297C42.75 6.54297 43.1641 6.625 43.5273 6.78906C43.8945 6.94922 44.2051 7.17578 44.459 7.46875C44.7129 7.75781 44.9062 8.09961 45.0391 8.49414C45.1719 8.88477 45.2383 9.30859 45.2383 9.76562V9.90039C45.2383 10.3574 45.1719 10.7812 45.0391 11.1719C44.9062 11.5625 44.7129 11.9043 44.459 12.1973C44.2051 12.4863 43.8965 12.7129 43.5332 12.877C43.1699 13.0371 42.7578 13.1172 42.2969 13.1172C41.832 13.1172 41.416 13.0371 41.0488 12.877C40.6855 12.7129 40.377 12.4863 40.123 12.1973C39.8691 11.9043 39.6758 11.5625 39.543 11.1719C39.4102 10.7812 39.3438 10.3574 39.3438 9.90039ZM40.7559 9.76562V9.90039C40.7559 10.1855 40.7852 10.4551 40.8438 10.709C40.9023 10.9629 40.9941 11.1855 41.1191 11.377C41.2441 11.5684 41.4043 11.7188 41.5996 11.8281C41.7949 11.9375 42.0273 11.9922 42.2969 11.9922C42.5586 11.9922 42.7852 11.9375 42.9766 11.8281C43.1719 11.7188 43.332 11.5684 43.457 11.377C43.582 11.1855 43.6738 10.9629 43.7324 10.709C43.7949 10.4551 43.8262 10.1855 43.8262 9.90039V9.76562C43.8262 9.48438 43.7949 9.21875 43.7324 8.96875C43.6738 8.71484 43.5801 8.49023 43.4512 8.29492C43.3262 8.09961 43.166 7.94727 42.9707 7.83789C42.7793 7.72461 42.5508 7.66797 42.2852 7.66797C42.0195 7.66797 41.7891 7.72461 41.5938 7.83789C41.4023 7.94727 41.2441 8.09961 41.1191 8.29492C40.9941 8.49023 40.9023 8.71484 40.8438 8.96875C40.7852 9.21875 40.7559 9.48438 40.7559 9.76562ZM49.0117 11.9922C49.2422 11.9922 49.4492 11.9473 49.6328 11.8574C49.8203 11.7637 49.9707 11.6348 50.084 11.4707C50.2012 11.3066 50.2656 11.1172 50.2773 10.9023H51.6074C51.5996 11.3125 51.4785 11.6855 51.2441 12.0215C51.0098 12.3574 50.6992 12.625 50.3125 12.8242C49.9258 13.0195 49.498 13.1172 49.0293 13.1172C48.5449 13.1172 48.123 13.0352 47.7637 12.8711C47.4043 12.7031 47.1055 12.4727 46.8672 12.1797C46.6289 11.8867 46.4492 11.5488 46.3281 11.166C46.2109 10.7832 46.1523 10.373 46.1523 9.93555V9.73047C46.1523 9.29297 46.2109 8.88281 46.3281 8.5C46.4492 8.11328 46.6289 7.77344 46.8672 7.48047C47.1055 7.1875 47.4043 6.95898 47.7637 6.79492C48.123 6.62695 48.543 6.54297 49.0234 6.54297C49.5312 6.54297 49.9766 6.64453 50.3594 6.84766C50.7422 7.04688 51.043 7.32617 51.2617 7.68555C51.4844 8.04102 51.5996 8.45508 51.6074 8.92773H50.2773C50.2656 8.69336 50.207 8.48242 50.1016 8.29492C50 8.10352 49.8555 7.95117 49.668 7.83789C49.4844 7.72461 49.2637 7.66797 49.0059 7.66797C48.7207 7.66797 48.4844 7.72656 48.2969 7.84375C48.1094 7.95703 47.9629 8.11328 47.8574 8.3125C47.752 8.50781 47.6758 8.72852 47.6289 8.97461C47.5859 9.2168 47.5645 9.46875 47.5645 9.73047V9.93555C47.5645 10.1973 47.5859 10.4512 47.6289 10.6973C47.6719 10.9434 47.7461 11.1641 47.8516 11.3594C47.9609 11.5508 48.1094 11.7051 48.2969 11.8223C48.4844 11.9355 48.7227 11.9922 49.0117 11.9922ZM56.2656 11.7285V8.70508C56.2656 8.47852 56.2246 8.2832 56.1426 8.11914C56.0605 7.95508 55.9355 7.82812 55.7676 7.73828C55.6035 7.64844 55.3965 7.60352 55.1465 7.60352C54.916 7.60352 54.7168 7.64258 54.5488 7.7207C54.3809 7.79883 54.25 7.9043 54.1562 8.03711C54.0625 8.16992 54.0156 8.32031 54.0156 8.48828H52.6094C52.6094 8.23828 52.6699 7.99609 52.791 7.76172C52.9121 7.52734 53.0879 7.31836 53.3184 7.13477C53.5488 6.95117 53.8242 6.80664 54.1445 6.70117C54.4648 6.5957 54.8242 6.54297 55.2227 6.54297C55.6992 6.54297 56.1211 6.62305 56.4883 6.7832C56.8594 6.94336 57.1504 7.18555 57.3613 7.50977C57.5762 7.83008 57.6836 8.23242 57.6836 8.7168V11.5352C57.6836 11.8242 57.7031 12.084 57.7422 12.3145C57.7852 12.541 57.8457 12.7383 57.9238 12.9062V13H56.4766C56.4102 12.8477 56.3574 12.6543 56.3184 12.4199C56.2832 12.1816 56.2656 11.9512 56.2656 11.7285ZM56.4707 9.14453L56.4824 10.0176H55.4688C55.207 10.0176 54.9766 10.043 54.7773 10.0938C54.5781 10.1406 54.4121 10.2109 54.2793 10.3047C54.1465 10.3984 54.0469 10.5117 53.9805 10.6445C53.9141 10.7773 53.8809 10.9277 53.8809 11.0957C53.8809 11.2637 53.9199 11.418 53.998 11.5586C54.0762 11.6953 54.1895 11.8027 54.3379 11.8809C54.4902 11.959 54.6738 11.998 54.8887 11.998C55.1777 11.998 55.4297 11.9395 55.6445 11.8223C55.8633 11.7012 56.0352 11.5547 56.1602 11.3828C56.2852 11.207 56.3516 11.041 56.3594 10.8848L56.8164 11.5117C56.7695 11.6719 56.6895 11.8438 56.5762 12.0273C56.4629 12.2109 56.3145 12.3867 56.1309 12.5547C55.9512 12.7188 55.7344 12.8535 55.4805 12.959C55.2305 13.0645 54.9414 13.1172 54.6133 13.1172C54.1992 13.1172 53.8301 13.0352 53.5059 12.8711C53.1816 12.7031 52.9277 12.4785 52.7441 12.1973C52.5605 11.9121 52.4688 11.5898 52.4688 11.2305C52.4688 10.8945 52.5312 10.5977 52.6562 10.3398C52.7852 10.0781 52.9727 9.85938 53.2188 9.68359C53.4688 9.50781 53.7734 9.375 54.1328 9.28516C54.4922 9.19141 54.9023 9.14453 55.3633 9.14453H56.4707ZM62.0664 6.66016V7.69141H58.4922V6.66016H62.0664ZM59.5234 5.10742H60.9355V11.248C60.9355 11.4434 60.9629 11.5938 61.0176 11.6992C61.0762 11.8008 61.1562 11.8691 61.2578 11.9043C61.3594 11.9395 61.4785 11.957 61.6152 11.957C61.7129 11.957 61.8066 11.9512 61.8965 11.9395C61.9863 11.9277 62.0586 11.916 62.1133 11.9043L62.1191 12.9824C62.002 13.0176 61.8652 13.0488 61.709 13.0762C61.5566 13.1035 61.3809 13.1172 61.1816 13.1172C60.8574 13.1172 60.5703 13.0605 60.3203 12.9473C60.0703 12.8301 59.875 12.6406 59.7344 12.3789C59.5938 12.1172 59.5234 11.7695 59.5234 11.3359V5.10742ZM64.668 6.66016V13H63.25V6.66016H64.668ZM63.1562 4.99609C63.1562 4.78125 63.2266 4.60352 63.3672 4.46289C63.5117 4.31836 63.7109 4.24609 63.9648 4.24609C64.2148 4.24609 64.4121 4.31836 64.5566 4.46289C64.7012 4.60352 64.7734 4.78125 64.7734 4.99609C64.7734 5.20703 64.7012 5.38281 64.5566 5.52344C64.4121 5.66406 64.2148 5.73438 63.9648 5.73438C63.7109 5.73438 63.5117 5.66406 63.3672 5.52344C63.2266 5.38281 63.1562 5.20703 63.1562 4.99609ZM65.9453 9.90039V9.76562C65.9453 9.30859 66.0117 8.88477 66.1445 8.49414C66.2773 8.09961 66.4688 7.75781 66.7188 7.46875C66.9727 7.17578 67.2812 6.94922 67.6445 6.78906C68.0117 6.625 68.4258 6.54297 68.8867 6.54297C69.3516 6.54297 69.7656 6.625 70.1289 6.78906C70.4961 6.94922 70.8066 7.17578 71.0605 7.46875C71.3145 7.75781 71.5078 8.09961 71.6406 8.49414C71.7734 8.88477 71.8398 9.30859 71.8398 9.76562V9.90039C71.8398 10.3574 71.7734 10.7812 71.6406 11.1719C71.5078 11.5625 71.3145 11.9043 71.0605 12.1973C70.8066 12.4863 70.498 12.7129 70.1348 12.877C69.7715 13.0371 69.3594 13.1172 68.8984 13.1172C68.4336 13.1172 68.0176 13.0371 67.6504 12.877C67.2871 12.7129 66.9785 12.4863 66.7246 12.1973C66.4707 11.9043 66.2773 11.5625 66.1445 11.1719C66.0117 10.7812 65.9453 10.3574 65.9453 9.90039ZM67.3574 9.76562V9.90039C67.3574 10.1855 67.3867 10.4551 67.4453 10.709C67.5039 10.9629 67.5957 11.1855 67.7207 11.377C67.8457 11.5684 68.0059 11.7188 68.2012 11.8281C68.3965 11.9375 68.6289 11.9922 68.8984 11.9922C69.1602 11.9922 69.3867 11.9375 69.5781 11.8281C69.7734 11.7188 69.9336 11.5684 70.0586 11.377C70.1836 11.1855 70.2754 10.9629 70.334 10.709C70.3965 10.4551 70.4277 10.1855 70.4277 9.90039V9.76562C70.4277 9.48438 70.3965 9.21875 70.334 8.96875C70.2754 8.71484 70.1816 8.49023 70.0527 8.29492C69.9277 8.09961 69.7676 7.94727 69.5723 7.83789C69.3809 7.72461 69.1523 7.66797 68.8867 7.66797C68.6211 7.66797 68.3906 7.72461 68.1953 7.83789C68.0039 7.94727 67.8457 8.09961 67.7207 8.29492C67.5957 8.49023 67.5039 8.71484 67.4453 8.96875C67.3867 9.21875 67.3574 9.48438 67.3574 9.76562ZM74.4238 8.01367V13H73.0117V6.66016H74.3418L74.4238 8.01367ZM74.1719 9.5957L73.7148 9.58984C73.7188 9.14062 73.7812 8.72852 73.9023 8.35352C74.0273 7.97852 74.1992 7.65625 74.418 7.38672C74.6406 7.11719 74.9062 6.91016 75.2148 6.76562C75.5234 6.61719 75.8672 6.54297 76.2461 6.54297C76.5508 6.54297 76.8262 6.58594 77.0723 6.67188C77.3223 6.75391 77.5352 6.88867 77.7109 7.07617C77.8906 7.26367 78.0273 7.50781 78.1211 7.80859C78.2148 8.10547 78.2617 8.4707 78.2617 8.9043V13H76.8438V8.89844C76.8438 8.59375 76.7988 8.35352 76.709 8.17773C76.623 7.99805 76.4961 7.87109 76.3281 7.79688C76.1641 7.71875 75.959 7.67969 75.7129 7.67969C75.4707 7.67969 75.2539 7.73047 75.0625 7.83203C74.8711 7.93359 74.709 8.07227 74.5762 8.24805C74.4473 8.42383 74.3477 8.62695 74.2773 8.85742C74.207 9.08789 74.1719 9.33398 74.1719 9.5957Z" fill="#587880"/>
</svg>

