<svg width="127" height="93" viewBox="0 0 127 93" fill="none" xmlns="http://www.w3.org/2000/svg">
<circle cx="25" cy="25" r="21" stroke="#FAF3E6" strokeWidth="8"/>
<path d="M20.5697 79.5C20.5697 81.7091 22.3606 83.5 24.5697 83.4999C26.7788 83.4999 28.5697 81.7091 28.5697 79.4999L20.5697 79.5ZM20.5695 49.4698L20.5697 79.5L28.5697 79.4999L28.5695 49.4697L20.5695 49.4698Z" fill="#FAF3E6"/>
<path d="M23.6758 80L24.6758 83L25.6758 80" stroke="#FAF3E6" strokeWidth="6"/>
<rect x="11" y="11" width="116" height="27" rx="13.5" fill="#28C76F"/>
<circle cx="26.5" cy="24.5" r="11.5" fill="#FAF3E6"/>
<mask id="mask0_292_9609" style="mask-type:alpha" maskUnits="userSpaceOnUse" x="17" y="16" width="17" height="16">
<rect x="17.9609" y="16" width="16" height="16" fill="#D9D9D9"/>
</mask>
<g mask="url(#mask0_292_9609)">
<path d="M22.6283 29.332H30.6283V27.9987H22.6283V29.332ZM22.6283 26.6654H30.6283V25.332H22.6283V26.6654ZM22.6283 23.9987H30.6283V23.3987L29.6616 22.6654H23.5949L22.6283 23.3987V23.9987ZM25.3283 21.332H27.9283L26.6283 20.3487L25.3283 21.332ZM21.2949 30.6654V24.4154L20.0949 25.332L19.2949 24.2654L21.2949 22.732V20.6654H22.6283V21.7154L26.6283 18.6654L33.9616 24.2654L33.1616 25.3154L31.9616 24.4154V30.6654H21.2949ZM21.2949 19.9987C21.2949 19.4431 21.4894 18.9709 21.8783 18.582C22.2671 18.1931 22.7394 17.9987 23.2949 17.9987C23.4838 17.9987 23.6421 17.9348 23.7699 17.807C23.8977 17.6793 23.9616 17.5209 23.9616 17.332H25.2949C25.2949 17.8876 25.1005 18.3598 24.7116 18.7487C24.3227 19.1376 23.8505 19.332 23.2949 19.332C23.106 19.332 22.9477 19.3959 22.8199 19.5237C22.6921 19.6515 22.6283 19.8098 22.6283 19.9987H21.2949Z" fill="#28C76F"/>
</g>
<path d="M44.8672 19.9688H47.8848C48.5332 19.9688 49.0859 20.0664 49.543 20.2617C50 20.457 50.3496 20.7461 50.5918 21.1289C50.8379 21.5078 50.9609 21.9766 50.9609 22.5352C50.9609 22.9609 50.8828 23.3359 50.7266 23.6602C50.5703 23.9844 50.3496 24.2578 50.0645 24.4805C49.7793 24.6992 49.4395 24.8691 49.0449 24.9902L48.5996 25.207H45.8867L45.875 24.041H47.9082C48.2598 24.041 48.5527 23.9785 48.7871 23.8535C49.0215 23.7285 49.1973 23.5586 49.3145 23.3438C49.4355 23.125 49.4961 22.8789 49.4961 22.6055C49.4961 22.3086 49.4375 22.0508 49.3203 21.832C49.207 21.6094 49.0312 21.4395 48.793 21.3223C48.5547 21.2012 48.252 21.1406 47.8848 21.1406H46.3379V28.5H44.8672V19.9688ZM49.7363 28.5L47.7324 24.668L49.2734 24.6621L51.3066 28.4238V28.5H49.7363ZM52.0156 25.4004V25.2656C52.0156 24.8086 52.082 24.3848 52.2148 23.9941C52.3477 23.5996 52.5391 23.2578 52.7891 22.9688C53.043 22.6758 53.3516 22.4492 53.7148 22.2891C54.082 22.125 54.4961 22.043 54.957 22.043C55.4219 22.043 55.8359 22.125 56.1992 22.2891C56.5664 22.4492 56.877 22.6758 57.1309 22.9688C57.3848 23.2578 57.5781 23.5996 57.7109 23.9941C57.8438 24.3848 57.9102 24.8086 57.9102 25.2656V25.4004C57.9102 25.8574 57.8438 26.2812 57.7109 26.6719C57.5781 27.0625 57.3848 27.4043 57.1309 27.6973C56.877 27.9863 56.5684 28.2129 56.2051 28.377C55.8418 28.5371 55.4297 28.6172 54.9688 28.6172C54.5039 28.6172 54.0879 28.5371 53.7207 28.377C53.3574 28.2129 53.0488 27.9863 52.7949 27.6973C52.541 27.4043 52.3477 27.0625 52.2148 26.6719C52.082 26.2812 52.0156 25.8574 52.0156 25.4004ZM53.4277 25.2656V25.4004C53.4277 25.6855 53.457 25.9551 53.5156 26.209C53.5742 26.4629 53.666 26.6855 53.791 26.877C53.916 27.0684 54.0762 27.2188 54.2715 27.3281C54.4668 27.4375 54.6992 27.4922 54.9688 27.4922C55.2305 27.4922 55.457 27.4375 55.6484 27.3281C55.8438 27.2188 56.0039 27.0684 56.1289 26.877C56.2539 26.6855 56.3457 26.4629 56.4043 26.209C56.4668 25.9551 56.498 25.6855 56.498 25.4004V25.2656C56.498 24.9844 56.4668 24.7188 56.4043 24.4688C56.3457 24.2148 56.252 23.9902 56.123 23.7949C55.998 23.5996 55.8379 23.4473 55.6426 23.3379C55.4512 23.2246 55.2227 23.168 54.957 23.168C54.6914 23.168 54.4609 23.2246 54.2656 23.3379C54.0742 23.4473 53.916 23.5996 53.791 23.7949C53.666 23.9902 53.5742 24.2148 53.5156 24.4688C53.457 24.7188 53.4277 24.9844 53.4277 25.2656ZM58.8242 25.4004V25.2656C58.8242 24.8086 58.8906 24.3848 59.0234 23.9941C59.1562 23.5996 59.3477 23.2578 59.5977 22.9688C59.8516 22.6758 60.1602 22.4492 60.5234 22.2891C60.8906 22.125 61.3047 22.043 61.7656 22.043C62.2305 22.043 62.6445 22.125 63.0078 22.2891C63.375 22.4492 63.6855 22.6758 63.9395 22.9688C64.1934 23.2578 64.3867 23.5996 64.5195 23.9941C64.6523 24.3848 64.7188 24.8086 64.7188 25.2656V25.4004C64.7188 25.8574 64.6523 26.2812 64.5195 26.6719C64.3867 27.0625 64.1934 27.4043 63.9395 27.6973C63.6855 27.9863 63.377 28.2129 63.0137 28.377C62.6504 28.5371 62.2383 28.6172 61.7773 28.6172C61.3125 28.6172 60.8965 28.5371 60.5293 28.377C60.166 28.2129 59.8574 27.9863 59.6035 27.6973C59.3496 27.4043 59.1562 27.0625 59.0234 26.6719C58.8906 26.2812 58.8242 25.8574 58.8242 25.4004ZM60.2363 25.2656V25.4004C60.2363 25.6855 60.2656 25.9551 60.3242 26.209C60.3828 26.4629 60.4746 26.6855 60.5996 26.877C60.7246 27.0684 60.8848 27.2188 61.0801 27.3281C61.2754 27.4375 61.5078 27.4922 61.7773 27.4922C62.0391 27.4922 62.2656 27.4375 62.457 27.3281C62.6523 27.2188 62.8125 27.0684 62.9375 26.877C63.0625 26.6855 63.1543 26.4629 63.2129 26.209C63.2754 25.9551 63.3066 25.6855 63.3066 25.4004V25.2656C63.3066 24.9844 63.2754 24.7188 63.2129 24.4688C63.1543 24.2148 63.0605 23.9902 62.9316 23.7949C62.8066 23.5996 62.6465 23.4473 62.4512 23.3379C62.2598 23.2246 62.0312 23.168 61.7656 23.168C61.5 23.168 61.2695 23.2246 61.0742 23.3379C60.8828 23.4473 60.7246 23.5996 60.5996 23.7949C60.4746 23.9902 60.3828 24.2148 60.3242 24.4688C60.2656 24.7188 60.2363 24.9844 60.2363 25.2656ZM67.8125 28.5H66.4004V21.5508C66.4004 21.0781 66.4883 20.6816 66.6641 20.3613C66.8438 20.0371 67.0996 19.793 67.4316 19.6289C67.7637 19.4609 68.1562 19.377 68.6094 19.377C68.75 19.377 68.8887 19.3867 69.0254 19.4062C69.1621 19.4219 69.2949 19.4473 69.4238 19.4824L69.3887 20.5723C69.3105 20.5527 69.2246 20.5391 69.1309 20.5312C69.041 20.5234 68.9434 20.5195 68.8379 20.5195C68.623 20.5195 68.4375 20.5605 68.2812 20.6426C68.1289 20.7207 68.0117 20.8359 67.9297 20.9883C67.8516 21.1406 67.8125 21.3281 67.8125 21.5508V28.5ZM69.1191 22.1602V23.1914H65.4277V22.1602H69.1191ZM78.6172 27.334V28.5H74.334V27.334H78.6172ZM74.7441 19.9688V28.5H73.2734V19.9688H74.7441ZM79.3438 25.4004V25.2656C79.3438 24.8086 79.4102 24.3848 79.543 23.9941C79.6758 23.5996 79.8672 23.2578 80.1172 22.9688C80.3711 22.6758 80.6797 22.4492 81.043 22.2891C81.4102 22.125 81.8242 22.043 82.2852 22.043C82.75 22.043 83.1641 22.125 83.5273 22.2891C83.8945 22.4492 84.2051 22.6758 84.459 22.9688C84.7129 23.2578 84.9062 23.5996 85.0391 23.9941C85.1719 24.3848 85.2383 24.8086 85.2383 25.2656V25.4004C85.2383 25.8574 85.1719 26.2812 85.0391 26.6719C84.9062 27.0625 84.7129 27.4043 84.459 27.6973C84.2051 27.9863 83.8965 28.2129 83.5332 28.377C83.1699 28.5371 82.7578 28.6172 82.2969 28.6172C81.832 28.6172 81.416 28.5371 81.0488 28.377C80.6855 28.2129 80.377 27.9863 80.123 27.6973C79.8691 27.4043 79.6758 27.0625 79.543 26.6719C79.4102 26.2812 79.3438 25.8574 79.3438 25.4004ZM80.7559 25.2656V25.4004C80.7559 25.6855 80.7852 25.9551 80.8438 26.209C80.9023 26.4629 80.9941 26.6855 81.1191 26.877C81.2441 27.0684 81.4043 27.2188 81.5996 27.3281C81.7949 27.4375 82.0273 27.4922 82.2969 27.4922C82.5586 27.4922 82.7852 27.4375 82.9766 27.3281C83.1719 27.2188 83.332 27.0684 83.457 26.877C83.582 26.6855 83.6738 26.4629 83.7324 26.209C83.7949 25.9551 83.8262 25.6855 83.8262 25.4004V25.2656C83.8262 24.9844 83.7949 24.7188 83.7324 24.4688C83.6738 24.2148 83.5801 23.9902 83.4512 23.7949C83.3262 23.5996 83.166 23.4473 82.9707 23.3379C82.7793 23.2246 82.5508 23.168 82.2852 23.168C82.0195 23.168 81.7891 23.2246 81.5938 23.3379C81.4023 23.4473 81.2441 23.5996 81.1191 23.7949C80.9941 23.9902 80.9023 24.2148 80.8438 24.4688C80.7852 24.7188 80.7559 24.9844 80.7559 25.2656ZM89.0117 27.4922C89.2422 27.4922 89.4492 27.4473 89.6328 27.3574C89.8203 27.2637 89.9707 27.1348 90.084 26.9707C90.2012 26.8066 90.2656 26.6172 90.2773 26.4023H91.6074C91.5996 26.8125 91.4785 27.1855 91.2441 27.5215C91.0098 27.8574 90.6992 28.125 90.3125 28.3242C89.9258 28.5195 89.498 28.6172 89.0293 28.6172C88.5449 28.6172 88.123 28.5352 87.7637 28.3711C87.4043 28.2031 87.1055 27.9727 86.8672 27.6797C86.6289 27.3867 86.4492 27.0488 86.3281 26.666C86.2109 26.2832 86.1523 25.873 86.1523 25.4355V25.2305C86.1523 24.793 86.2109 24.3828 86.3281 24C86.4492 23.6133 86.6289 23.2734 86.8672 22.9805C87.1055 22.6875 87.4043 22.459 87.7637 22.2949C88.123 22.127 88.543 22.043 89.0234 22.043C89.5312 22.043 89.9766 22.1445 90.3594 22.3477C90.7422 22.5469 91.043 22.8262 91.2617 23.1855C91.4844 23.541 91.5996 23.9551 91.6074 24.4277H90.2773C90.2656 24.1934 90.207 23.9824 90.1016 23.7949C90 23.6035 89.8555 23.4512 89.668 23.3379C89.4844 23.2246 89.2637 23.168 89.0059 23.168C88.7207 23.168 88.4844 23.2266 88.2969 23.3438C88.1094 23.457 87.9629 23.6133 87.8574 23.8125C87.752 24.0078 87.6758 24.2285 87.6289 24.4746C87.5859 24.7168 87.5645 24.9688 87.5645 25.2305V25.4355C87.5645 25.6973 87.5859 25.9512 87.6289 26.1973C87.6719 26.4434 87.7461 26.6641 87.8516 26.8594C87.9609 27.0508 88.1094 27.2051 88.2969 27.3223C88.4844 27.4355 88.7227 27.4922 89.0117 27.4922ZM96.2656 27.2285V24.2051C96.2656 23.9785 96.2246 23.7832 96.1426 23.6191C96.0605 23.4551 95.9355 23.3281 95.7676 23.2383C95.6035 23.1484 95.3965 23.1035 95.1465 23.1035C94.916 23.1035 94.7168 23.1426 94.5488 23.2207C94.3809 23.2988 94.25 23.4043 94.1562 23.5371C94.0625 23.6699 94.0156 23.8203 94.0156 23.9883H92.6094C92.6094 23.7383 92.6699 23.4961 92.791 23.2617C92.9121 23.0273 93.0879 22.8184 93.3184 22.6348C93.5488 22.4512 93.8242 22.3066 94.1445 22.2012C94.4648 22.0957 94.8242 22.043 95.2227 22.043C95.6992 22.043 96.1211 22.123 96.4883 22.2832C96.8594 22.4434 97.1504 22.6855 97.3613 23.0098C97.5762 23.3301 97.6836 23.7324 97.6836 24.2168V27.0352C97.6836 27.3242 97.7031 27.584 97.7422 27.8145C97.7852 28.041 97.8457 28.2383 97.9238 28.4062V28.5H96.4766C96.4102 28.3477 96.3574 28.1543 96.3184 27.9199C96.2832 27.6816 96.2656 27.4512 96.2656 27.2285ZM96.4707 24.6445L96.4824 25.5176H95.4688C95.207 25.5176 94.9766 25.543 94.7773 25.5938C94.5781 25.6406 94.4121 25.7109 94.2793 25.8047C94.1465 25.8984 94.0469 26.0117 93.9805 26.1445C93.9141 26.2773 93.8809 26.4277 93.8809 26.5957C93.8809 26.7637 93.9199 26.918 93.998 27.0586C94.0762 27.1953 94.1895 27.3027 94.3379 27.3809C94.4902 27.459 94.6738 27.498 94.8887 27.498C95.1777 27.498 95.4297 27.4395 95.6445 27.3223C95.8633 27.2012 96.0352 27.0547 96.1602 26.8828C96.2852 26.707 96.3516 26.541 96.3594 26.3848L96.8164 27.0117C96.7695 27.1719 96.6895 27.3438 96.5762 27.5273C96.4629 27.7109 96.3145 27.8867 96.1309 28.0547C95.9512 28.2188 95.7344 28.3535 95.4805 28.459C95.2305 28.5645 94.9414 28.6172 94.6133 28.6172C94.1992 28.6172 93.8301 28.5352 93.5059 28.3711C93.1816 28.2031 92.9277 27.9785 92.7441 27.6973C92.5605 27.4121 92.4688 27.0898 92.4688 26.7305C92.4688 26.3945 92.5312 26.0977 92.6562 25.8398C92.7852 25.5781 92.9727 25.3594 93.2188 25.1836C93.4688 25.0078 93.7734 24.875 94.1328 24.7852C94.4922 24.6914 94.9023 24.6445 95.3633 24.6445H96.4707ZM102.066 22.1602V23.1914H98.4922V22.1602H102.066ZM99.5234 20.6074H100.936V26.748C100.936 26.9434 100.963 27.0938 101.018 27.1992C101.076 27.3008 101.156 27.3691 101.258 27.4043C101.359 27.4395 101.479 27.457 101.615 27.457C101.713 27.457 101.807 27.4512 101.896 27.4395C101.986 27.4277 102.059 27.416 102.113 27.4043L102.119 28.4824C102.002 28.5176 101.865 28.5488 101.709 28.5762C101.557 28.6035 101.381 28.6172 101.182 28.6172C100.857 28.6172 100.57 28.5605 100.32 28.4473C100.07 28.3301 99.875 28.1406 99.7344 27.8789C99.5938 27.6172 99.5234 27.2695 99.5234 26.8359V20.6074ZM104.668 22.1602V28.5H103.25V22.1602H104.668ZM103.156 20.4961C103.156 20.2812 103.227 20.1035 103.367 19.9629C103.512 19.8184 103.711 19.7461 103.965 19.7461C104.215 19.7461 104.412 19.8184 104.557 19.9629C104.701 20.1035 104.773 20.2812 104.773 20.4961C104.773 20.707 104.701 20.8828 104.557 21.0234C104.412 21.1641 104.215 21.2344 103.965 21.2344C103.711 21.2344 103.512 21.1641 103.367 21.0234C103.227 20.8828 103.156 20.707 103.156 20.4961ZM105.945 25.4004V25.2656C105.945 24.8086 106.012 24.3848 106.145 23.9941C106.277 23.5996 106.469 23.2578 106.719 22.9688C106.973 22.6758 107.281 22.4492 107.645 22.2891C108.012 22.125 108.426 22.043 108.887 22.043C109.352 22.043 109.766 22.125 110.129 22.2891C110.496 22.4492 110.807 22.6758 111.061 22.9688C111.314 23.2578 111.508 23.5996 111.641 23.9941C111.773 24.3848 111.84 24.8086 111.84 25.2656V25.4004C111.84 25.8574 111.773 26.2812 111.641 26.6719C111.508 27.0625 111.314 27.4043 111.061 27.6973C110.807 27.9863 110.498 28.2129 110.135 28.377C109.771 28.5371 109.359 28.6172 108.898 28.6172C108.434 28.6172 108.018 28.5371 107.65 28.377C107.287 28.2129 106.979 27.9863 106.725 27.6973C106.471 27.4043 106.277 27.0625 106.145 26.6719C106.012 26.2812 105.945 25.8574 105.945 25.4004ZM107.357 25.2656V25.4004C107.357 25.6855 107.387 25.9551 107.445 26.209C107.504 26.4629 107.596 26.6855 107.721 26.877C107.846 27.0684 108.006 27.2188 108.201 27.3281C108.396 27.4375 108.629 27.4922 108.898 27.4922C109.16 27.4922 109.387 27.4375 109.578 27.3281C109.773 27.2188 109.934 27.0684 110.059 26.877C110.184 26.6855 110.275 26.4629 110.334 26.209C110.396 25.9551 110.428 25.6855 110.428 25.4004V25.2656C110.428 24.9844 110.396 24.7188 110.334 24.4688C110.275 24.2148 110.182 23.9902 110.053 23.7949C109.928 23.5996 109.768 23.4473 109.572 23.3379C109.381 23.2246 109.152 23.168 108.887 23.168C108.621 23.168 108.391 23.2246 108.195 23.3379C108.004 23.4473 107.846 23.5996 107.721 23.7949C107.596 23.9902 107.504 24.2148 107.445 24.4688C107.387 24.7188 107.357 24.9844 107.357 25.2656ZM114.424 23.5137V28.5H113.012V22.1602H114.342L114.424 23.5137ZM114.172 25.0957L113.715 25.0898C113.719 24.6406 113.781 24.2285 113.902 23.8535C114.027 23.4785 114.199 23.1562 114.418 22.8867C114.641 22.6172 114.906 22.4102 115.215 22.2656C115.523 22.1172 115.867 22.043 116.246 22.043C116.551 22.043 116.826 22.0859 117.072 22.1719C117.322 22.2539 117.535 22.3887 117.711 22.5762C117.891 22.7637 118.027 23.0078 118.121 23.3086C118.215 23.6055 118.262 23.9707 118.262 24.4043V28.5H116.844V24.3984C116.844 24.0938 116.799 23.8535 116.709 23.6777C116.623 23.498 116.496 23.3711 116.328 23.2969C116.164 23.2188 115.959 23.1797 115.713 23.1797C115.471 23.1797 115.254 23.2305 115.062 23.332C114.871 23.4336 114.709 23.5723 114.576 23.748C114.447 23.9238 114.348 24.127 114.277 24.3574C114.207 24.5879 114.172 24.834 114.172 25.0957Z" fill="#FAF3E6"/>
</svg>
