<svg width="50" height="93" viewBox="0 0 50 93" fill="none" xmlns="http://www.w3.org/2000/svg">
<circle cx="25" cy="25" r="21" stroke="#FAF3E6" stroke-opacity="0.8" strokeWidth="8"/>
<path d="M20.5692 79.5007C20.5692 81.7098 22.3601 83.5007 24.5692 83.5007C26.7784 83.5007 28.5692 81.7098 28.5692 79.5006L20.5692 79.5007ZM20.569 49.4705L20.5692 79.5007L28.5692 79.5006L28.569 49.4704L20.569 49.4705Z" fill="#FAF3E6" fill-opacity="0.8"/>
<path d="M23.6758 80L24.6758 83L25.6758 80" stroke="#FAF3E6" stroke-opacity="0.8" strokeWidth="6"/>
<rect x="12" y="11.8203" width="27" height="27" rx="13.5" fill="#FAF3E6" fill-opacity="0.8"/>
<circle cx="25.5" cy="25.3203" r="11.5" fill="#FAF3E6" fill-opacity="0.8"/>
<mask id="mask0_112_1413" style="mask-type:alpha" maskUnits="userSpaceOnUse" x="18" y="17" width="16" height="16">
<rect x="18" y="17" width="16" height="16" fill="#D9D9D9"/>
</mask>
<g mask="url(#mask0_112_1413)">
<path d="M29.9987 29.6673C29.8098 29.6673 29.6515 29.6034 29.5237 29.4756C29.3959 29.3479 29.332 29.1895 29.332 29.0007C29.332 28.8118 29.3959 28.6534 29.5237 28.5257C29.6515 28.3979 29.8098 28.334 29.9987 28.334C30.1876 28.334 30.3459 28.3979 30.4737 28.5257C30.6015 28.6534 30.6654 28.8118 30.6654 29.0007C30.6654 29.1895 30.6015 29.3479 30.4737 29.4756C30.3459 29.6034 30.1876 29.6673 29.9987 29.6673ZM22.6654 31.6673C22.4765 31.6673 22.3181 31.6034 22.1904 31.4756C22.0626 31.3479 21.9987 31.1895 21.9987 31.0007C21.9987 30.8118 22.0626 30.6534 22.1904 30.5257C22.3181 30.3979 22.4765 30.334 22.6654 30.334C22.8543 30.334 23.0126 30.3979 23.1404 30.5257C23.2681 30.6534 23.332 30.8118 23.332 31.0007C23.332 31.1895 23.2681 31.3479 23.1404 31.4756C23.0126 31.6034 22.8543 31.6673 22.6654 31.6673ZM21.9987 29.6673C21.8098 29.6673 21.6515 29.6034 21.5237 29.4756C21.3959 29.3479 21.332 29.1895 21.332 29.0007C21.332 28.8118 21.3959 28.6534 21.5237 28.5257C21.6515 28.3979 21.8098 28.334 21.9987 28.334H27.9987C28.1876 28.334 28.3459 28.3979 28.4737 28.5257C28.6015 28.6534 28.6654 28.8118 28.6654 29.0007C28.6654 29.1895 28.6015 29.3479 28.4737 29.4756C28.3459 29.6034 28.1876 29.6673 27.9987 29.6673H21.9987ZM24.6654 31.6673C24.4765 31.6673 24.3181 31.6034 24.1904 31.4756C24.0626 31.3479 23.9987 31.1895 23.9987 31.0007C23.9987 30.8118 24.0626 30.6534 24.1904 30.5257C24.3181 30.3979 24.4765 30.334 24.6654 30.334H29.332C29.5209 30.334 29.6793 30.3979 29.807 30.5257C29.9348 30.6534 29.9987 30.8118 29.9987 31.0007C29.9987 31.1895 29.9348 31.3479 29.807 31.4756C29.6793 31.6034 29.5209 31.6673 29.332 31.6673H24.6654ZM22.9987 27.6673C21.9876 27.6673 21.1237 27.309 20.407 26.5923C19.6904 25.8757 19.332 25.0118 19.332 24.0007C19.332 23.0784 19.6376 22.2729 20.2487 21.584C20.8598 20.8951 21.6154 20.4895 22.5154 20.3673C22.8709 19.734 23.357 19.2368 23.9737 18.8757C24.5904 18.5145 25.2654 18.334 25.9987 18.334C26.9987 18.334 27.8681 18.6534 28.607 19.2923C29.3459 19.9312 29.7931 20.7284 29.9487 21.684C30.7154 21.7507 31.3598 22.0673 31.882 22.634C32.4043 23.2007 32.6654 23.8784 32.6654 24.6673C32.6654 25.5007 32.3737 26.209 31.7904 26.7923C31.207 27.3757 30.4987 27.6673 29.6654 27.6673H22.9987ZM22.9987 26.334H29.6654C30.132 26.334 30.5265 26.1729 30.8487 25.8507C31.1709 25.5284 31.332 25.134 31.332 24.6673C31.332 24.2007 31.1709 23.8062 30.8487 23.484C30.5265 23.1618 30.132 23.0007 29.6654 23.0007H28.6654V22.334C28.6654 21.6007 28.4043 20.9729 27.882 20.4507C27.3598 19.9284 26.732 19.6673 25.9987 19.6673C25.4654 19.6673 24.9793 19.8118 24.5404 20.1007C24.1015 20.3895 23.7709 20.7784 23.5487 21.2673L23.382 21.6673H22.9654C22.332 21.6895 21.7904 21.9257 21.3404 22.3757C20.8904 22.8257 20.6654 23.3673 20.6654 24.0007C20.6654 24.6451 20.8931 25.1951 21.3487 25.6507C21.8043 26.1062 22.3543 26.334 22.9987 26.334Z" fill="#113F4A"/>
</g>
</svg>
