<svg width="40" height="46" viewBox="0 0 40 46" fill="none" xmlns="http://www.w3.org/2000/svg">
<path fill-rule="evenodd" clipRule="evenodd" d="M25.5071 38.4326C33.8748 36.0898 40 28.5418 40 19.5924C40 8.77182 31.0457 0 20 0C8.9543 0 0 8.77182 0 19.5924C0 29.2467 7.12806 37.2701 16.5098 38.8875L20.8692 46.005L25.5071 38.4326Z" fill="#FF881B"/>
<mask id="mask0_5609_18074" style="mask-type:alpha" maskUnits="userSpaceOnUse" x="4" y="2" width="31" height="31">
<rect x="4.44434" y="2.99805" width="29.6296" height="29.6293" fill="#D9D9D9"/>
</mask>
<g mask="url(#mask0_5609_18074)">
<path d="M13.0871 27.6879H27.902V25.2188H13.0871V27.6879ZM13.0871 22.7497H27.902V20.2806H13.0871V22.7497ZM13.0871 17.8115H27.902V16.7004L26.1118 15.3424H14.8773L13.0871 16.7004V17.8115ZM18.0871 12.8733H22.902L20.4946 11.0523L18.0871 12.8733ZM10.618 30.1571V18.5831L8.39579 20.2806L6.91431 18.3053L10.618 15.4658V11.6387H13.0871V13.5831L20.4946 7.93505L34.0748 18.3053L32.5933 20.2497L30.3711 18.5831V30.1571H10.618ZM10.618 10.4042C10.618 9.37537 10.9781 8.50089 11.6983 7.78073C12.4184 7.06058 13.2929 6.7005 14.3217 6.7005C14.6715 6.7005 14.9647 6.58219 15.2013 6.34556C15.438 6.10894 15.5563 5.81573 15.5563 5.46594H18.0254C18.0254 6.49474 17.6653 7.36922 16.9452 8.08937C16.225 8.80953 15.3505 9.16961 14.3217 9.16961C13.9719 9.16961 13.6787 9.28792 13.4421 9.52454C13.2055 9.76117 13.0871 10.0544 13.0871 10.4042H10.618Z" fill="#FAF3E6"/>
</g>
</svg>
